# xmcd CD database file
#
# Track frame offsets:
#	150
#	4103
#	20221
#	36966
#	53272
#	69184
#	82959
#	95738
#	111262
#	126798
#	146331
#	163663
#	177624
#	192227
#	209224
#	226366
#	242049
#	261094
#	279075
#	295943
#	310774
#	327025
#	337598
#
# Disc length: 4543 seconds
#
# Revision: 0
# Processed by: cddbd v1.5.1PL2 Copyright (c) Steve Scherf et al.
# Submitted via: CDex 1.51
#
DISCID=4211bd17
DTITLE=Nechivile (Acústico) - Acústico (DVD Rip)
DYEAR=2005
DGENRE=Country
TTITLE0=Introdução
TTITLE1=Por Toda Vida
TTITLE2=Pago Pra Ver
TTITLE3=Tente Entender
TTITLE4=Amor Sem Fim
TTITLE5=Era Só Pra Ficar
TTITLE6=Vem Me Amar
TTITLE7=Saudade Matadeira
TTITLE8=Caminhos do Amor
TTITLE9=Tentei te Esquecer
TTITLE10=O Amor e o Tempo
TTITLE11=Queimando Gasolina
TTITLE12=Forró Doido
TTITLE13=Meu Melhor Amor
TTITLE14=Trago de Ilusão
TTITLE15=Quero
TTITLE16=Coração
TTITLE17=Pra Sempre Quero Amar
TTITLE18=Jeito de Olhar
TTITLE19=Vem me Namorar
TTITLE20=A Gente se Enrosca
TTITLE21=Bônus Ensaio I
TTITLE22=Bônus Ensaio II
EXTD=YEAR: 2005
EXTT0=
EXTT1=
EXTT2=
EXTT3=
EXTT4=
EXTT5=
EXTT6=
EXTT7=
EXTT8=
EXTT9=
EXTT10=
EXTT11=
EXTT12=
EXTT13=
EXTT14=
EXTT15=
EXTT16=
EXTT17=
EXTT18=
EXTT19=
EXTT20=
EXTT21=
EXTT22=
PLAYORDER=
